<svg id="svg1" class="bi bi-book-fill" width="16" height="16" fill="currentColor" version="1.1" viewBox="0 0 16 16" xmlns="http://www.w3.org/2000/svg">
<path id="path33" d="m5.6542969 1.0175781c-0.937649-0.0077798-2.1562033 0.2320406-3.6542969 0.9824219h-2v11l5-0.462891c0 0.277 0.223 0.5 0.5 0.5h5c0.277 0 0.5-0.223 0.5-0.5l5 0.462891v-11h-2c-3.963706-1.9853839-5.9689162-0.3897194-6-0.1191406-0.0193356-0.1683128-0.8024892-0.8504769-2.3457031-0.8632813zm-0.1054688 1.0019531c1.097007-0.023041 2.0464501 0.2806373 2.4511719 0.9804688 0.8094436-1.3996629 3.795659-1.2153323 5.791016 0l1.208984 1v7.613345l-3-0.613345s-3-1-4 1c-1-2-4-1-4-1s-1.9847374 0.410213-3 0.671912v-7.671912l1.2089844-1c0.9976785-0.6076661 2.2428367-0.9574273 3.3398437-0.9804688zm-2.5488281 1.9804688v1h4v-1zm6 0v1h4v-1zm-6 2v1h4v-1zm6 0v1h4v-1zm-6 2v1h4v-1zm6 0v1h4v-1z"/>
</svg>
