<svg id="svg1" class="bi bi-pen-fill" width="16" height="16" version="1.1" viewBox="0 0 16 16" xmlns="http://www.w3.org/2000/svg">
<path id="rect9" d="m4.9921875 4.9902344c-0.00975 1.726e-4 -0.0196039 0.0012131-0.0292969 0.0019531-0.013623 0.00104-0.0275526 0.0037094-0.0410156 0.0058594-0.011573 0.00185-0.0236483 0.0031693-0.0351562 0.0058593-0.068466 0.0158741-0.1326726 0.0464478-0.1894532 0.0898438-0.017472 0.013199-0.0335361 0.0279367-0.0488281 0.0429688-0.015757 0.0154899-0.0295957 0.0316581-0.0429687 0.0488281-0.0141581 0.018178-0.0257114 0.0368906-0.0371094 0.0566406-0.00574 0.00995-0.0125542 0.0190129-0.0175782 0.0292969l-0.0019531 0.0039062-3.4804687 5.9667974-0.0019532 0.001953c-0.0072 0.01259-0.0134272 0.025812-0.0195312 0.039062-0.00629 0.01354-0.0125841 0.027206-0.0175781 0.041016-0.00365 0.01028-0.0067557 0.02066-0.0097657 0.03125-0.0049999 0.01736-0.0086607 0.035164-0.0117187 0.052734-0.0013 0.0078-0.0029562 0.015538-0.0039063 0.023438-0.00434895 0.03475-0.00490208 0.069079-0.0019531 0.103515 3.709e-4 0.0044 0.0014532 0.009202 0.0019531 0.013672 0.00145 0.01287 0.0034494 0.026363 0.0058594 0.039063 0.00125 0.0066 0.0024063 0.013021 0.0039063 0.019531 0.011038 0.04722 0.0284144 0.092421 0.0527343 0.134766 0.00145 0.002499 0.0024063 0.005312 0.0039063 0.007812 0.00455 0.0076 0.010636 0.014074 0.015625 0.021484 0.014512 0.02155 0.029263 0.041577 0.046875 0.060547l0.0019531 0.001953v0.001954l0.0019532 0.001953 0.0019531 0.001953c0.048037 0.04979 0.1066095 0.088791 0.171875 0.115234 0.013523 0.0056 0.0272526 0.009302 0.0410156 0.013672 0.00829 0.0026 0.0169166 0.005713 0.0253906 0.007812 0.013008 0.0033 0.0259545 0.005513 0.0390625 0.007813 0.00592 1e-3 0.0115841 0.003106 0.0175782 0.003906 0.0338739 0.0046 0.0679159 0.006206 0.1015624 0.003907h6.5644532l0.4003906-1.490235-3.0488281-5.2265624-0.0195313-0.0332031c-0.00768-0.013316-0.0144935-0.0264365-0.0234375-0.0390625-0.0086-0.012247-0.0178507-0.0239023-0.0273437-0.0351562-0.00754-0.0088201-0.0152285-0.0170497-0.0234375-0.0253907l-0.0019531-0.0019531v-0.0019531l-0.0019532-0.0019531-0.0019531-0.0019532c-0.011658-0.011584-0.0245124-0.0229441-0.0371094-0.0332031l-0.0019531-0.0019531-0.0019531-0.0019532c-8.55e-4 -4.481e-4 -0.0050332-0.0014779-0.0058594-0.0019531-0.02942-0.022832-0.060492-0.0430457-0.09375-0.0585937-0.0032-0.00149-0.0065356-0.0024863-0.0097656-0.0039063-0.00948-0.00416-0.0196829-0.0081797-0.0292969-0.0117187-0.0079-0.0029-0.0154135-0.0053125-0.0234375-0.0078125-0.012453-0.00388-0.0243924-0.0068657-0.0371094-0.0097657-0.00465-0.0010599-0.0089788-0.0029862-0.0136719-0.0039062h-0.0019531-0.0019531-0.0019531c-0.025391-0.00473-0.0506969-0.0090156-0.0761719-0.0097656-0.00781-2.291e-4 -0.0156485-1.381e-4 -0.0234375 0zm0.0078125 1.4414062 2.6328125 4.5605474h-5.265625l2.6328125-4.5605474z" fill="#e7dc48" stroke-dasharray="1.202, 2.404" stroke-linecap="round" stroke-linejoin="round" stroke-width="1.202"/>
<path id="path12" d="m4.4963811 10.492994a0.49991175 0.49991175 0 1 1 0.9998233 0 0.49991175 0.49991175 0 0 1-0.9998233 0m0.048991-3.0019697a0.45242013 0.45242013 0 1 1 0.8998409 0l-0.174969 1.7531904a0.27595129 0.27595129 0 0 1-0.5499028 0z" fill="#e7dc48" stroke-width=".499912"/>
<g stroke-dasharray="1.202, 2.404" stroke-linecap="round" stroke-linejoin="round" stroke-width="1.202">
<rect id="rect23" transform="rotate(15)" x="9.9276915" y="-1.544232" width="1" height="4" ry=".5"/>
<rect id="rect24" transform="rotate(-75)" x=".54423195" y="9.9276905" width="1" height="4" ry=".5"/>
<path id="path23" d="m13.887468 0.05187678c-0.802684-0.21507867-1.622039 0.2579758-1.837117 1.0606602l-1.682325 6.2785195-0.268424 1.0017707-1.0256708 3.8278588s-0.12941 0.482963-0.07343 1.010206c0.08845 0.831648 0.251423 2.402421 0.259811 2.43727 0.04195 0.174288 0.176027 0.317467 0.356636 0.365914 0.177592 0.04753 0.362012-0.0067 0.4855168-0.132065 0.02696-0.02736 0.954499-1.343726 1.443973-2.015619 0.295856-0.406286 0.425266-0.889249 0.425266-0.889249l1.025671-3.8278586 0.268423-1.0017708 1.682325-6.2785195c0.215079-0.8026844-0.257976-1.6220387-1.06066-1.8371173z"/>
</g>
</svg>
