<?xml version="1.0" encoding="UTF-8" standalone="no"?>
<!-- Created with Inkscape (http://www.inkscape.org/) -->

<svg
   width="30"
   height="30"
   viewBox="0 0 30 30.000001"
   version="1.1"
   id="svg1"
   xml:space="preserve"
   inkscape:version="1.4.2 (ebf0e940d0, 2025-05-08)"
   sodipodi:docname="nav-logo.svg"
   xmlns:inkscape="http://www.inkscape.org/namespaces/inkscape"
   xmlns:sodipodi="http://sodipodi.sourceforge.net/DTD/sodipodi-0.dtd"
   xmlns:xlink="http://www.w3.org/1999/xlink"
   xmlns="http://www.w3.org/2000/svg"
   xmlns:svg="http://www.w3.org/2000/svg"><sodipodi:namedview
     id="namedview1"
     pagecolor="#ffffff"
     bordercolor="#000000"
     borderopacity="0.25"
     inkscape:showpageshadow="2"
     inkscape:pageopacity="0.0"
     inkscape:pagecheckerboard="0"
     inkscape:deskcolor="#d1d1d1"
     inkscape:document-units="px"
     inkscape:zoom="2.0000001"
     inkscape:cx="-33.249998"
     inkscape:cy="32.249999"
     inkscape:window-width="1366"
     inkscape:window-height="736"
     inkscape:window-x="0"
     inkscape:window-y="0"
     inkscape:window-maximized="1"
     inkscape:current-layer="g10"
     showgrid="true"
     showguides="true"><inkscape:grid
       id="grid17"
       units="px"
       originx="0"
       originy="0"
       spacingx="1"
       spacingy="1.0000001"
       empcolor="#0099e5"
       empopacity="0.30196078"
       color="#0099e5"
       opacity="0.14901961"
       empspacing="5"
       dotted="false"
       gridanglex="30"
       gridanglez="30"
       visible="true" /></sodipodi:namedview><defs
     id="defs1"><linearGradient
       id="linearGradient88"
       inkscape:collect="always"><stop
         style="stop-color:#8f3d8f;stop-opacity:0.5;"
         offset="0"
         id="stop86" /><stop
         style="stop-color:#2956a3;stop-opacity:1;"
         offset="0.5"
         id="stop87" /><stop
         style="stop-color:#23a964;stop-opacity:0.5;"
         offset="1"
         id="stop88" /></linearGradient><linearGradient
       inkscape:collect="always"
       xlink:href="#linearGradient88"
       id="linearGradient80"
       gradientUnits="userSpaceOnUse"
       gradientTransform="matrix(1.875,0,0,1.875,2309.2554,790.80443)"
       x1="-1035.1158"
       y1="-903.77649"
       x2="-393.50256"
       y2="-262.16315" /></defs><g
     inkscape:label="Camada 1"
     inkscape:groupmode="layer"
     id="layer1"><g
       id="g51"
       transform="matrix(0.02493714,0,0,0.02493714,19.312015,-1.3018245)"><g
         id="g10"
         transform="translate(260.68801,955.98073)"><g
           id="g2"
           transform="translate(-1403.5291)"><path
             id="path4"
             style="fill:#2956a3;stroke-width:37.5945;stroke-linecap:round;stroke-linejoin:round;paint-order:stroke fill markers;fill-opacity:1"
             d="m 518.79132,-903.77649 h 902.26878 c 83.3094,0 150.378,67.06863 150.378,150.37813 v 902.26863 c 0,83.3095 -67.0686,150.37813 -150.378,150.37813 H 518.79132 c -83.30944,0 -150.37806,-67.06863 -150.37806,-150.37813 v -902.26863 c 0,-83.3095 67.06862,-150.37813 150.37806,-150.37813 z" /><path
             id="path77"
             style="fill:url(#linearGradient80);stroke-width:37.5945;stroke-linecap:round;stroke-linejoin:round;paint-order:stroke fill markers"
             d="m 518.79132,-903.77649 h 902.26878 c 83.3094,0 150.378,67.06863 150.378,150.37813 v 902.26863 c 0,83.3095 -67.0686,150.37813 -150.378,150.37813 H 518.79132 c -83.30944,0 -150.37806,-67.06863 -150.37806,-150.37813 v -902.26863 c 0,-83.3095 67.06862,-150.37813 150.37806,-150.37813 z" /><path
             id="path79"
             style="font-style:normal;font-variant:normal;font-weight:normal;font-stretch:normal;font-size:72px;line-height:125%;font-family:'Times New Roman';text-align:center;writing-mode:lr-tb;text-anchor:middle;fill:#c6cfd5;fill-opacity:1;stroke:none;stroke-width:6.11148;stroke-linecap:round;stroke-linejoin:round;stroke-dasharray:none;stroke-opacity:1;paint-order:stroke fill markers"
             d="m 443.60226,-452.64216 c 0,0 8e-5,75.18906 75.18906,75.18906 h 225.56716 c 0,0 -0.0475,-75.18906 -74.89535,-75.18906 z m 300.75622,75.18906 c 0,0 -75.18906,5e-5 -75.18906,75.18906 v 225.567162 c 75.18899,0 75.18906,-75.189052 75.18906,-75.189052 z m 75.18906,-75.18906 c 0,0 7e-5,75.18906 75.18905,75.18906 v 300.756222 c 75.18897,0 75.18904,-75.189052 75.18904,-75.189052 V -377.4531 c 0,0 -0.0459,-73.41433 -76.65758,-75.18906 z m 225.56716,0 c 0,0 10e-5,75.18906 75.1891,75.18906 h 225.5671 c 0,0 -0.047,-75.18906 -74.8953,-75.18906 z m 300.7562,75.18906 c 0,0 -75.189,5e-5 -75.189,75.18906 v 225.567162 c 75.1889,0 75.189,-75.189052 75.189,-75.189052 z m 75.1891,-75.18906 v 75.18906 75.18906 c 75.9163,-4e-5 75.189,-75.18906 75.189,-75.18906 0,-1.32291 1.4207,-75.18904 -75.189,-75.18906 z m -902.26868,150.37812 c -75.18898,0 -75.18906,75.18905 -75.18906,75.18905 v 150.378112 c 75.18898,0 75.18906,-75.189052 75.18906,-75.189052 z m 601.51248,0 c -75.189,0 -75.1891,75.18905 -75.1891,75.18905 v 150.378112 c 75.189,0 75.1891,-75.189052 75.1891,-75.189052 z" /><path
             id="rect88"
             style="opacity:1;fill:#ffffff;fill-opacity:0.102176;fill-rule:nonzero;stroke:none;stroke-width:37.5945;stroke-linecap:round;stroke-linejoin:round;stroke-dasharray:none;stroke-opacity:1;paint-order:stroke fill markers"
             d="m 518.79132,-903.77649 c -83.30941,0 -150.37806,67.06871 -150.37806,150.37811 v 902.26867 c 0,83.3094 67.06865,150.37809 150.37806,150.37809 H 1421.06 c 83.3094,0 150.3781,-67.06869 150.3781,-150.37809 v -902.26867 c 0,-83.3094 -67.0687,-150.37811 -150.3781,-150.37811 z m 56.39179,75.18906 h 789.48509 c 72.8957,0 131.5808,58.68512 131.5808,131.58084 V 92.478483 c 0,72.895727 -58.6851,131.580867 -131.5808,131.580867 H 575.18311 c -72.89573,0 -131.58085,-58.68514 -131.58085,-131.580867 V -697.00659 c 0,-72.89572 58.68512,-131.58084 131.58085,-131.58084 z" /></g></g></g></g></svg>
