<?xml version="1.0" encoding="UTF-8" standalone="no"?>
<!-- Created with Inkscape (http://www.inkscape.org/) -->

<svg
   width="30"
   height="30"
   viewBox="0 0 30 30.000001"
   version="1.1"
   id="svg1"
   xml:space="preserve"
   inkscape:version="1.3.2 (091e20ef0f, 2023-11-25)"
   sodipodi:docname="nav-logo.svg"
   xmlns:inkscape="http://www.inkscape.org/namespaces/inkscape"
   xmlns:sodipodi="http://sodipodi.sourceforge.net/DTD/sodipodi-0.dtd"
   xmlns:xlink="http://www.w3.org/1999/xlink"
   xmlns="http://www.w3.org/2000/svg"
   xmlns:svg="http://www.w3.org/2000/svg"><sodipodi:namedview
     id="namedview1"
     pagecolor="#ffffff"
     bordercolor="#000000"
     borderopacity="0.25"
     inkscape:showpageshadow="2"
     inkscape:pageopacity="0.0"
     inkscape:pagecheckerboard="0"
     inkscape:deskcolor="#d1d1d1"
     inkscape:document-units="px"
     inkscape:zoom="11.313709"
     inkscape:cx="12.065009"
     inkscape:cy="14.672465"
     inkscape:window-width="1366"
     inkscape:window-height="736"
     inkscape:window-x="0"
     inkscape:window-y="0"
     inkscape:window-maximized="1"
     inkscape:current-layer="g2"
     showgrid="true"
     showguides="true"><inkscape:grid
       id="grid17"
       units="px"
       originx="0"
       originy="0"
       spacingx="1"
       spacingy="1.0000001"
       empcolor="#0099e5"
       empopacity="0.30196078"
       color="#0099e5"
       opacity="0.14901961"
       empspacing="5"
       dotted="false"
       gridanglex="30"
       gridanglez="30"
       visible="true" /></sodipodi:namedview><defs
     id="defs1"><linearGradient
       id="linearGradient3"
       inkscape:collect="always"><stop
         style="stop-color:#5d652b;stop-opacity:1;"
         offset="0"
         id="stop4" /><stop
         style="stop-color:#3f1e22;stop-opacity:1;"
         offset="1"
         id="stop5" /></linearGradient><linearGradient
       id="linearGradient13"
       inkscape:collect="always"><stop
         style="stop-color:#8a6c00;stop-opacity:1;"
         offset="0"
         id="stop14" /><stop
         style="stop-color:#a19042;stop-opacity:1;"
         offset="0.5"
         id="stop16" /><stop
         style="stop-color:#947500;stop-opacity:1;"
         offset="1"
         id="stop15" /></linearGradient><linearGradient
       id="linearGradient7"
       inkscape:collect="always"><stop
         style="stop-color:#c4ab40;stop-opacity:1;"
         offset="0.1821733"
         id="stop8" /><stop
         style="stop-color:#fff395;stop-opacity:1;"
         offset="0.5"
         id="stop13" /><stop
         style="stop-color:#deb244;stop-opacity:1;"
         offset="0.91302943"
         id="stop10" /></linearGradient><linearGradient
       id="linearGradient1"
       inkscape:collect="always"><stop
         style="stop-color:#7a3b43;stop-opacity:1;"
         offset="0"
         id="stop3" /><stop
         style="stop-color:#3c2431;stop-opacity:1;"
         offset="1"
         id="stop2" /></linearGradient><linearGradient
       id="linearGradient88"
       inkscape:collect="always"><stop
         style="stop-color:#8f3d8f;stop-opacity:0.5;"
         offset="0"
         id="stop86" /><stop
         style="stop-color:#2956a3;stop-opacity:1;"
         offset="0.5"
         id="stop87" /><stop
         style="stop-color:#23a964;stop-opacity:0.5;"
         offset="1"
         id="stop88" /></linearGradient><linearGradient
       id="linearGradient76"
       inkscape:collect="always"><stop
         style="stop-color:#000000;stop-opacity:0.4652164;"
         offset="0"
         id="stop76" /><stop
         style="stop-color:#000000;stop-opacity:0;"
         offset="1"
         id="stop77" /></linearGradient><linearGradient
       id="linearGradient70"
       inkscape:collect="always"><stop
         style="stop-color:#592759;stop-opacity:1;"
         offset="0"
         id="stop70" /><stop
         style="stop-color:#26395a;stop-opacity:1;"
         offset="0.5"
         id="stop72" /><stop
         style="stop-color:#27583e;stop-opacity:1;"
         offset="1"
         id="stop71" /></linearGradient><linearGradient
       inkscape:collect="always"
       xlink:href="#linearGradient70"
       id="linearGradient71"
       x1="-1195.5192"
       y1="-1064.1798"
       x2="-233.09924"
       y2="-101.75985"
       gradientUnits="userSpaceOnUse"
       gradientTransform="translate(-1260.9048)" /><linearGradient
       inkscape:collect="always"
       xlink:href="#linearGradient76"
       id="linearGradient77"
       x1="-754.41003"
       y1="-703.27234"
       x2="-754.41003"
       y2="-262.16318"
       gradientUnits="userSpaceOnUse"
       gradientTransform="translate(-1260.9048)" /><linearGradient
       inkscape:collect="always"
       xlink:href="#linearGradient88"
       id="linearGradient80"
       gradientUnits="userSpaceOnUse"
       gradientTransform="matrix(1.875,0,0,1.875,2309.2554,790.80443)"
       x1="-1035.1158"
       y1="-903.77649"
       x2="-393.50256"
       y2="-262.16315" /><linearGradient
       inkscape:collect="always"
       xlink:href="#linearGradient13"
       id="linearGradient15"
       x1="-954.91418"
       y1="-445.00897"
       x2="87.707397"
       y2="-61.658997"
       gradientUnits="userSpaceOnUse"
       gradientTransform="translate(-1844.6382,240.60499)" /><linearGradient
       inkscape:collect="always"
       xlink:href="#linearGradient7"
       id="linearGradient4"
       gradientUnits="userSpaceOnUse"
       gradientTransform="translate(-3248.1672,-802.0166)"
       x1="-914.81335"
       y1="-462.66733"
       x2="87.707397"
       y2="-101.75983" /><linearGradient
       inkscape:collect="always"
       xlink:href="#linearGradient3"
       id="linearGradient6"
       gradientUnits="userSpaceOnUse"
       x1="-995.01501"
       y1="-863.67566"
       x2="87.707397"
       y2="219.04683"
       gradientTransform="translate(-3248.1672,-802.0166)" /><linearGradient
       inkscape:collect="always"
       xlink:href="#linearGradient1"
       id="linearGradient8"
       gradientUnits="userSpaceOnUse"
       x1="-1035.1158"
       y1="-903.77649"
       x2="167.90906"
       y2="299.2485"
       gradientTransform="translate(-3248.1672,-802.0166)" /></defs><g
     inkscape:label="Camada 1"
     inkscape:groupmode="layer"
     id="layer1"><g
       id="g51"
       transform="matrix(0.02493714,0,0,0.02493714,19.312015,-1.3018245)"><g
         id="g10"
         transform="translate(260.68801,955.98073)"><path
           id="rect17"
           style="fill:url(#linearGradient71);stroke-width:20.0504;stroke-linecap:round;stroke-linejoin:round;paint-order:stroke fill markers"
           d="m -2215.819,-903.77649 h 481.21 c 44.4317,0 80.2016,35.76994 80.2016,80.20167 v 481.20994 c 0,44.43173 -35.7699,80.20167 -80.2016,80.20167 h -481.21 c -44.4317,0 -80.2016,-35.76994 -80.2016,-80.20167 v -481.20994 c 0,-44.43173 35.7699,-80.20167 80.2016,-80.20167 z" /><path
           id="rect76"
           style="opacity:1;fill:url(#linearGradient77);fill-rule:nonzero;stroke:none;stroke-width:20.0504;stroke-linecap:round;stroke-linejoin:round;stroke-dasharray:none;stroke-opacity:1;paint-order:stroke fill markers"
           d="m -2058.7835,-703.27234 c -7.54,7.15024 -11.2784,16.70597 -11.2784,28.66583 0,8.02141 2.1716,14.58649 6.9707,19.34551 l 50.9093,50.51765 v 15.03781 c -30.2988,-30.30826 -92.3527,-92.33982 -92.5766,-92.57652 -0.5552,-0.587 -1.146,-1.07102 -1.8014,-1.48812 -4.29,-2.72968 -10.5289,-4.0725 -18.7189,-4.07274 h -95.1612 c -10.1402,2.4e-4 -16.2472,-4.60591 -18.3273,-13.70634 h -5.2476 c -7.93,8.58035 -11.905,19.29377 -11.9049,32.03367 0,7.34887 9.8833,21.14559 5.9525,17.07418 -5.9265,-6.13834 117.0913,116.30807 117.0913,116.30807 1.0401,15.34026 1.5662,26.7916 1.5664,34.46165 -10e-5,4.25374 -0.5156,8.20875 -1.4881,11.82662 l -81.3765,-81.37649 c -1.82,-1.04003 -4.0574,-1.56644 -6.6574,-1.56644 -19.5001,0 -29.2141,13.55725 -29.2141,40.7274 0,4.02998 0.1581,10.1372 0.5483,18.32734 0.3882,8.19002 0.6266,14.29724 0.6266,18.32733 0,5.97991 -1.7108,10.7443 -5.0909,14.25459 l 2.7412,4.30771 214.6804,214.68041 h 301.9311 c 44.4316,0 80.2016,-35.77002 80.2016,-80.20165 v -288.85129 c -22.9372,-22.91223 -45.4504,-45.39724 -48.7162,-48.79457 -4.2573,-4.42876 -10.139,-6.88781 -17.5441,-7.44058 l -17.7008,-1.17483 c -10.5302,-0.90982 -16.4791,-5.80597 -17.779,-14.6462 h -5.2476 c -6.1102,11.31026 -9.1637,21.524 -9.1637,30.62388 0,17.55057 10.7667,26.71093 32.347,27.49099 19.3702,0.78017 29.0574,7.70362 29.0574,20.83364 0,11.64989 -2.8143,21.68157 -8.3804,30.07562 -42.7396,-42.74001 -85.9049,-85.95406 -87.2507,-87.56392 -0.6694,-0.80084 -1.4413,-1.42977 -2.2713,-1.95805 -4.2903,-2.7298 -10.529,-4.0725 -18.7189,-4.07274 h -95.1612 c -10.1401,2.4e-4 -16.2473,-4.60602 -18.3273,-13.70634 h -5.2476 c -7.9302,8.58013 -11.905,19.2939 -11.9049,32.03367 -10e-5,7.28758 1.9887,12.95053 5.8741,16.99586 l 117.1696,116.38639 c 0.8839,13.03448 1.277,22.65713 1.4098,30.15395 -86.0513,-85.9374 -167.1612,-167.04439 -169.097,-169.56699 -1.0558,-1.41858 -2.2289,-2.76538 -3.6028,-3.91609 -4.0399,-3.38348 -9.5004,-5.59019 -16.291,-6.65737 l -16.3693,-2.5063 c -9.7502,-1.68999 -15.173,-6.58592 -16.2126,-14.6462 z" /><path
           style="font-style:normal;font-variant:normal;font-weight:normal;font-stretch:normal;font-size:72px;line-height:125%;font-family:'Times New Roman';text-align:center;writing-mode:lr-tb;text-anchor:middle;fill:#ffffff;fill-opacity:1;stroke:none;stroke-width:3.47676;stroke-linecap:round;stroke-linejoin:round;stroke-dasharray:none;stroke-opacity:1;paint-order:stroke fill markers"
           d="m -1724.3435,-575.15552 -5.46,-6.24021 c 13.7801,-10.27002 20.6701,-24.57009 20.6701,-42.90051 0,-13.13004 -9.6852,-20.08508 -29.0554,-20.86525 -21.5803,-0.78006 -32.3705,-9.94493 -32.3705,-27.49554 0,-9.09988 3.0551,-19.30502 9.1652,-30.6153 h 5.2651 c 1.2999,8.84025 7.2152,13.71533 17.7454,14.62515 l 17.7451,1.1699 c 17.4201,1.30037 26.1303,13.3256 26.1303,36.07569 v 14.62504 c 0,30.81073 -9.9452,51.3509 -29.8353,61.62103 m -109.3965,98.08633 -3.12,-4.09512 c 3.3797,-5.72018 5.0698,-12.54516 5.0699,-20.47525 -10e-5,-7.67013 -0.5198,-19.17532 -1.5601,-34.51562 -1.0397,-15.46984 -1.5602,-27.04033 -1.5599,-34.71044 -3e-4,-31.33025 7.6052,-56.03066 22.8155,-74.10088 h -114.8568 c -19.6302,1.1e-4 -29.4454,-8.19006 -29.4453,-24.57055 -10e-5,-12.73981 3.9649,-23.40003 11.8951,-31.98018 h 5.2651 c 2.08,9.10034 8.1901,13.65022 18.3301,13.64998 h 95.1615 c 8.1899,2.4e-4 14.43,1.36524 18.7203,4.09504 4.2898,2.73024 6.4348,9.10045 6.435,19.11038 v 9.55507 c -2e-4,4.81032 -2.4052,11.1153 -7.215,18.91528 -4.6803,7.67033 -7.0204,19.63045 -7.0202,35.88047 -2e-4,9.36032 1.4949,23.40039 4.4851,42.12056 2.99,18.72041 4.4849,32.76047 4.485,42.12065 -10e-5,23.14042 -9.2952,36.14059 -27.8853,39.00061 m -117.9767,0.19609 -2.7301,-4.29016 c 3.3801,-3.50995 5.0701,-8.25502 5.0701,-14.23518 0,-4.02978 -0.1942,-10.14021 -0.5842,-18.33035 -0.3908,-8.19005 -0.5842,-14.30007 -0.5842,-18.33014 0,-27.17027 9.7501,-40.75538 29.2504,-40.7555 2.5999,1.2e-4 4.8101,0.52043 6.6302,1.55988 v 5.26517 c -6.2401,4.03016 -9.3602,12.54519 -9.3602,25.54534 0,4.29014 0.2597,10.66042 0.78,19.11026 0.5203,8.4501 0.78,14.75521 0.78,18.91535 0,15.86006 -9.7501,24.37518 -29.2502,25.54533 m -56.1608,-1.36496 -4.2901,-1.36504 v -134.74718 c 0,-9.36008 -1.4952,-16.25024 -4.4852,-20.67037 -2.86,-4.54988 -10.7902,-7.86485 -23.7902,-9.94516 -19.7603,-3.24986 -29.6404,-13.12991 -29.6404,-29.6405 0,-11.95988 3.77,-21.51506 11.31,-28.66532 h 5.2653 c 1.0397,8.0603 6.4349,12.93538 16.1851,14.62537 l 16.3803,2.53492 c 9.1001,1.43012 15.7301,4.9402 19.8903,10.53 4.29,5.59037 6.4349,16.70545 6.4349,33.34555 v 139.81712 c 0,11.5701 -4.42,19.63019 -13.26,24.18036 m -125.3867,1.1699 -3.1201,-4.09506 c 3.38,-5.72007 5.0698,-12.54524 5.07,-20.47534 -2e-4,-7.67007 -0.5199,-19.17527 -1.56,-34.51555 -1.0397,-15.47009 -1.5602,-27.04023 -1.56,-34.71034 -2e-4,-31.33036 7.605,-56.03065 22.8153,-74.10111 h -114.8572 c -19.6303,2.4e-4 -29.4455,-8.18982 -29.4454,-24.57042 -10e-5,-12.73994 3.9651,-23.39993 11.8952,-31.9803 h 5.2651 c 2.0801,9.10045 8.19,13.65033 18.3303,13.65009 h 95.1613 c 8.1901,2.4e-4 14.4302,1.36536 18.7203,4.09504 4.2899,2.73024 6.4348,9.10045 6.435,19.1105 v 9.55496 c -2e-4,4.8102 -2.4052,11.11529 -7.215,18.91515 -4.6803,7.67034 -7.0204,19.63057 -7.0202,35.88059 -2e-4,9.36032 1.4949,23.40051 4.4851,42.12045 2.9898,18.72052 4.485,32.76062 4.4851,42.12076 -1e-4,23.1403 -9.2954,36.14056 -27.8854,39.00058 m -117.9766,0.19609 -2.7301,-4.28994 c 3.3801,-3.51029 5.07,-8.25525 5.07,-14.23518 0,-4.03009 -0.1961,-10.14032 -0.5842,-18.33036 -0.3902,-8.19016 -0.5853,-14.30029 -0.5853,-18.33027 0,-27.17021 9.7502,-40.75555 29.2504,-40.75555 2.6,0 4.8101,0.51985 6.6301,1.55988 v 5.26518 c -6.2401,4.03015 -9.3603,12.5453 -9.3601,25.54557 -2e-4,4.2899 0.2597,10.66007 0.78,19.10993 0.5199,8.45037 0.7801,14.7553 0.7801,18.91553 -1e-4,15.86014 -9.7502,24.37514 -29.2505,25.54521"
           id="path10" /><g
           id="g2"
           transform="translate(-1403.5291)"><path
             id="path4"
             style="fill:#2956a3;stroke-width:37.5945;stroke-linecap:round;stroke-linejoin:round;paint-order:stroke fill markers;fill-opacity:1"
             d="m 518.79132,-903.77649 h 902.26878 c 83.3094,0 150.378,67.06863 150.378,150.37813 v 902.26863 c 0,83.3095 -67.0686,150.37813 -150.378,150.37813 H 518.79132 c -83.30944,0 -150.37806,-67.06863 -150.37806,-150.37813 v -902.26863 c 0,-83.3095 67.06862,-150.37813 150.37806,-150.37813 z" /><path
             id="path77"
             style="fill:url(#linearGradient80);stroke-width:37.5945;stroke-linecap:round;stroke-linejoin:round;paint-order:stroke fill markers"
             d="m 518.79132,-903.77649 h 902.26878 c 83.3094,0 150.378,67.06863 150.378,150.37813 v 902.26863 c 0,83.3095 -67.0686,150.37813 -150.378,150.37813 H 518.79132 c -83.30944,0 -150.37806,-67.06863 -150.37806,-150.37813 v -902.26863 c 0,-83.3095 67.06862,-150.37813 150.37806,-150.37813 z" /><path
             id="path79"
             style="font-style:normal;font-variant:normal;font-weight:normal;font-stretch:normal;font-size:72px;line-height:125%;font-family:'Times New Roman';text-align:center;writing-mode:lr-tb;text-anchor:middle;fill:#c6cfd5;fill-opacity:1;stroke:none;stroke-width:6.11148;stroke-linecap:round;stroke-linejoin:round;stroke-dasharray:none;stroke-opacity:1;paint-order:stroke fill markers"
             d="m 443.60226,-452.64216 c 0,0 8e-5,75.18906 75.18906,75.18906 h 225.56716 c 0,0 -0.0475,-75.18906 -74.89535,-75.18906 z m 300.75622,75.18906 c 0,0 -75.18906,5e-5 -75.18906,75.18906 v 225.567162 c 75.18899,0 75.18906,-75.189052 75.18906,-75.189052 z m 75.18906,-75.18906 c 0,0 7e-5,75.18906 75.18905,75.18906 v 300.756222 c 75.18897,0 75.18904,-75.189052 75.18904,-75.189052 V -377.4531 c 0,0 -0.0459,-73.41433 -76.65758,-75.18906 z m 225.56716,0 c 0,0 10e-5,75.18906 75.1891,75.18906 h 225.5671 c 0,0 -0.047,-75.18906 -74.8953,-75.18906 z m 300.7562,75.18906 c 0,0 -75.189,5e-5 -75.189,75.18906 v 225.567162 c 75.1889,0 75.189,-75.189052 75.189,-75.189052 z m 75.1891,-75.18906 v 75.18906 75.18906 c 75.9163,-4e-5 75.189,-75.18906 75.189,-75.18906 0,-1.32291 1.4207,-75.18904 -75.189,-75.18906 z m -902.26868,150.37812 c -75.18898,0 -75.18906,75.18905 -75.18906,75.18905 v 150.378112 c 75.18898,0 75.18906,-75.189052 75.18906,-75.189052 z m 601.51248,0 c -75.189,0 -75.1891,75.18905 -75.1891,75.18905 v 150.378112 c 75.189,0 75.1891,-75.189052 75.1891,-75.189052 z" /><path
             id="rect88"
             style="opacity:1;fill:#ffffff;fill-opacity:0.102176;fill-rule:nonzero;stroke:none;stroke-width:37.5945;stroke-linecap:round;stroke-linejoin:round;stroke-dasharray:none;stroke-opacity:1;paint-order:stroke fill markers"
             d="m 518.79132,-903.77649 c -83.30941,0 -150.37806,67.06871 -150.37806,150.37811 v 902.26867 c 0,83.3094 67.06865,150.37809 150.37806,150.37809 H 1421.06 c 83.3094,0 150.3781,-67.06869 150.3781,-150.37809 v -902.26867 c 0,-83.3094 -67.0687,-150.37811 -150.3781,-150.37811 z m 56.39179,75.18906 h 789.48509 c 72.8957,0 131.5808,58.68512 131.5808,131.58084 V 92.478483 c 0,72.895727 -58.6851,131.580867 -131.5808,131.580867 H 575.18311 c -72.89573,0 -131.58085,-58.68514 -131.58085,-131.580867 V -697.00659 c 0,-72.89572 58.68512,-131.58084 131.58085,-131.58084 z" /></g><path
           id="path13"
           style="font-style:normal;font-variant:normal;font-weight:normal;font-stretch:normal;font-size:72px;line-height:125%;font-family:'Times New Roman';text-align:center;writing-mode:lr-tb;text-anchor:middle;fill:url(#linearGradient15);stroke:none;stroke-width:5.86702;stroke-linecap:round;stroke-linejoin:round;stroke-dasharray:none;stroke-opacity:1;paint-order:stroke fill markers"
           d="m -2759.4515,-181.96147 c 0,0 -34.6512,-9.8461 -23.4846,10.91023 3.6243,6.73679 43.0762,44.78139 49.4349,50.58849 11.8495,10.82151 29.1097,18.70294 54.2514,18.70294 h 200.5041 c 0,0 0,-31.89415 -20.1129,-55.45663 -4.5854,-5.37178 -36.4046,-39.58747 -43.319,-43.61653 -10.8509,-6.3229 1.3252,18.8715 -16.7697,18.8715 h -190.4445 z m 280.7058,80.20166 c 0,0 -62.3035,-7.34302 -80.2017,-3e-5 -21.8129,8.949101 1e-4,36.147691 1e-4,80.201691 l -40.1009,160.403309 40.1009,40.10083 c 80.2015,0 80.2016,-80.201659 80.2016,-80.201659 z m 40.1008,-80.20166 c 0,0 -33.3419,-5.07709 -18.1224,17.45326 1.4926,2.20956 36.4735,35.9428 38.2732,38.04759 11.7833,13.781 30.4572,24.70081 60.0509,24.70081 l -40.1008,240.60497 40.1008,40.10083 c 80.2016,0.48806 80.2017,-80.201659 80.2017,-80.201659 V -101.75981 c 0,0 -10e-5,-26.60331 -15.2461,-49.16631 -4.1431,-6.13145 -40.2681,-43.83296 -46.9689,-48.75274 -11.5258,-8.4623 3.5684,17.64596 -17.9867,17.71739 z m 200.5042,0 c 0,0 -33.3704,-6.59688 -20.1231,15.19692 2.4175,3.97704 38.6465,38.61693 42.0267,42.27642 11.8566,12.83612 30.1312,22.72832 58.298,22.72832 h 200.5042 c 0,0 0,-31.91896 -20.1364,-55.48412 -4.3254,-5.06186 -39.5423,-42.23347 -45.9254,-46.12529 -11.005,-6.70979 4.5976,21.40775 -14.1399,21.40775 z m 280.7058,80.20166 c 0,0 -61.808,-7.87963 -80.2017,-3e-5 -21.4685,9.196851 0,37.007611 0,80.201691 l -40.1008,160.403309 40.1008,40.10083 c 80.2016,0 80.2017,-80.201659 80.2017,-80.201659 z m 40.1008,-80.20166 c 0,18.15685 -37.1992,-10.86641 -30.8393,-3e-5 1.3294,2.27144 44.0669,47.47351 45.5759,49.47555 23.1593,30.7261 65.4651,30.72614 65.4651,30.72614 l -40.1009,80.201641 40.1009,40.10084 c 80.2016,0 80.2016,-80.20165 80.2016,-80.20165 v -40.100831 c 0,0 -0.01,-37.81109 -25.9685,-61.50939 -2.4421,-2.22921 -33.5751,-34.61712 -36.4981,-36.55336 -11.2593,-7.4583 2.2146,17.86109 -17.735,17.86109 z m -761.9157,120.302491 -40.1009,-40.100901 -40.1008,120.302551 -40.1008,120.302489 40.1008,40.10083 c 80.2016,0 80.2017,-80.201659 80.2017,-80.201659 z m 521.3107,0 -40.1008,-40.100861 -40.1008,120.302511 -40.1008,120.302419 40.1008,40.1009 c 80.2016,0 80.2016,-80.201659 80.2016,-80.201659 z"
           sodipodi:nodetypes="cssscssscccsscccccsscccccsscccssscsssccsscccccsscccccsssccccccccccccccc" /><g
           id="g1"
           transform="translate(-621.56286,-1724.3358)"><ellipse
             style="fill:#b29f41;fill-opacity:1;stroke-width:20.0504;stroke-linecap:round;stroke-linejoin:round;paint-order:stroke fill markers"
             id="path8"
             cx="-433.60336"
             cy="-302.26401"
             rx="601.51245"
             ry="601.51251" /><ellipse
             style="fill:#1c3b4b;fill-opacity:1;stroke-width:18.7137;stroke-linecap:round;stroke-linejoin:round;paint-order:stroke fill markers"
             id="ellipse12"
             cx="-433.60336"
             cy="-302.26401"
             rx="561.41156"
             ry="561.41162" /><path
             id="path6"
             style="font-style:normal;font-variant:normal;font-weight:normal;font-stretch:normal;font-size:72px;line-height:125%;font-family:'Times New Roman';text-align:center;writing-mode:lr-tb;text-anchor:middle;fill:#c9b44c;fill-opacity:1;stroke:none;stroke-width:5.86702;stroke-linecap:round;stroke-linejoin:round;stroke-dasharray:none;stroke-opacity:1;paint-order:stroke fill markers"
             d="m -914.81334,-462.66736 c 0,0 8e-5,80.20166 80.20166,80.20166 h 200.50414 c 0,0 -8e-5,-80.20167 -80.20165,-80.20166 z m 280.7058,80.20166 c 0,0 -80.20165,7e-5 -80.20165,80.20166 v 200.50414 c 80.20157,0 80.20165,-80.20166 80.20165,-80.20166 z m 40.10083,-80.20166 c 0,0 8e-5,80.20166 80.20166,80.20166 v 280.7058 c 80.20158,0.48806 80.20166,-80.20166 80.20166,-80.20166 V -382.4657 c 0,0 -8e-5,-80.46745 -80.20166,-80.20166 z m 200.50415,0 c 0,0 8e-5,80.20166 80.20166,80.20166 h 200.50415 c 0,0 -9e-5,-80.20167 -80.20166,-80.20166 z m 280.70581,80.20166 c 0,0 -80.20166,7e-5 -80.20166,80.20166 v 200.50414 c 80.20157,0 80.20166,-80.20166 80.20166,-80.20166 z m 40.100829,-80.20166 c 0,80.20158 80.2016537,80.20166 80.2016537,80.20166 v 120.30248 c 80.2015793,0 80.2016593,-80.20165 80.2016593,-80.20165 v -40.10083 c 0,0 -0.01476,-80.20166 -80.2016593,-80.20166 z m -761.915759,120.30249 c -80.20158,0 -80.20166,80.20165 -80.20166,80.20165 v 160.40332 c 80.20158,0 80.20166,-80.20166 80.20166,-80.20166 z m 521.31078,0 c -80.20158,0 -80.20166,80.20165 -80.20166,80.20165 v 160.40332 c 80.20158,0 80.20166,-80.20166 80.20166,-80.20166 z" /></g><rect
           style="fill:url(#linearGradient8);stroke-width:20.0504;stroke-linecap:round;stroke-linejoin:round;paint-order:stroke fill markers"
           id="rect2"
           width="1203.0249"
           height="1203.025"
           x="-4283.2832"
           y="-1705.7931"
           ry="120.3025" /><path
           id="path2"
           style="fill:url(#linearGradient6);fill-opacity:1;stroke-width:20.0504;stroke-linecap:round;stroke-linejoin:round;paint-order:stroke fill markers"
           d="m -4162.9806,-1705.7931 c -66.6474,0 -120.3024,53.6551 -120.3024,120.3025 v 962.41991 c 0,66.64745 53.655,120.30249 120.3024,120.30249 h 962.4199 c 66.6475,0 120.3025,-53.65504 120.3025,-120.30249 v -962.41991 c 0,-66.6474 -53.655,-120.3025 -120.3025,-120.3025 z m 40.1009,40.1009 h 882.2182 c 66.6475,0 120.3025,53.6549 120.3025,120.3024 v 882.21828 c 0,66.64752 -53.655,120.30249 -120.3025,120.30249 h -882.2182 c -66.6476,0 -120.3025,-53.65497 -120.3025,-120.30249 v -882.21828 c 0,-66.6475 53.6549,-120.3024 120.3025,-120.3024 z" /><path
           id="path3"
           style="font-style:normal;font-variant:normal;font-weight:normal;font-stretch:normal;font-size:72px;line-height:125%;font-family:'Times New Roman';text-align:center;writing-mode:lr-tb;text-anchor:middle;fill:url(#linearGradient4);fill-opacity:1;stroke:none;stroke-width:5.86702;stroke-linecap:round;stroke-linejoin:round;stroke-dasharray:none;stroke-opacity:1;paint-order:stroke fill markers"
           d="m -4162.9806,-1264.6839 c 0,0 1e-4,80.2016 80.2017,80.2016 h 200.5041 c 0,0 -10e-5,-80.2017 -80.2016,-80.2016 z m 280.7058,80.2016 c 0,0 -80.2016,10e-5 -80.2016,80.2017 v 200.5041 c 80.2015,0 80.2016,-80.20166 80.2016,-80.20166 z m 40.1009,-80.2016 c 0,0 0,80.2016 80.2016,80.2016 v 280.7058 c 80.2016,0.48806 80.2017,-80.20166 80.2017,-80.20166 v -200.50414 c 0,0 -1e-4,-80.4674 -80.2017,-80.2016 z m 200.5041,0 c 0,0 1e-4,80.2016 80.2017,80.2016 h 200.5041 c 0,0 -1e-4,-80.2017 -80.2016,-80.2016 z m 280.7058,80.2016 c 0,0 -80.2016,10e-5 -80.2016,80.2017 v 200.5041 c 80.2015,0 80.2016,-80.20166 80.2016,-80.20166 z m 40.1008,-80.2016 c 0,80.2015 80.2017,80.2016 80.2017,80.2016 v 120.3025 c 80.2016,0 80.2017,-80.2017 80.2017,-80.2017 v -40.1008 c 0,0 -0.015,-80.2016 -80.2017,-80.2016 z m -761.9157,120.3024 c -80.2016,0 -80.2017,80.2017 -80.2017,80.2017 v 160.4033 c 80.2016,0 80.2017,-80.20166 80.2017,-80.20166 z m 521.3108,0 c -80.2016,0 -80.2017,80.2017 -80.2017,80.2017 v 160.4033 c 80.2016,0 80.2017,-80.20166 80.2017,-80.20166 z" /></g></g></g></svg>
