<svg class="bi bi-pen-fill" width="8" height="17" fill="currentColor" version="1.1" viewBox="0 0 8 17" xmlns="http://www.w3.org/2000/svg">
 <path d="m6.6754 0.010564c-0.82528-0.097336-1.568 0.4887-1.6654 1.314l-0.058566 0.49656-1.4645-0.17272-0.025216-0.0029758c-0.00864-0.00103-0.016672-0.00242-0.025215-0.00297-0.26465-0.017779-0.49848 0.17447-0.52991 0.44097-9.53e-4 0.0086-0.00245 0.016667-0.00295 0.025229l-0.055591 0.47134-0.058566 0.49656-0.40791 3.4585c-0.032447 0.27509 0.1629 0.52268 0.438 0.55512 0.27509 0.032445 0.52268-0.1629 0.55512-0.43799l0.40791-3.4585 0.058565-0.49656 0.99312 0.11713-0.82017 6.9537-0.4683 3.9705c-0.097337 0.82528 0.313 3.0577 1.1383 3.155 0.82528 0.09734 1.7437-1.9784 1.8411-2.8036l1.1715-9.9331 0.2926-2.4809c0.097334-0.82528-0.4887-1.568-1.314-1.6654z" fill="#000" stroke-dasharray="3.57848, 3.57848" stroke-linecap="round" stroke-linejoin="round" stroke-width=".59641" style="paint-order:stroke fill markers"/>
</svg>
