<svg id="svg1" width="16" height="16" fill="currentColor" version="1.1" viewBox="0 0 16 16" xmlns="http://www.w3.org/2000/svg">
<path id="rect3" d="m8 0c-3.8660364 0-7 3.1339636-7 7 0 3.866036 3.1339636 7 7 7 3.866036 0 7-3.133964 7-7 0-3.8660364-3.133964-7-7-7zm0 1a6 6 0 0 1 6 6 6 6 0 0 1-6 6 6 6 0 0 1-6-6 6 6 0 0 1 6-6zm0.4863281 1c-1.020279 0-1.8446984 0.2810671-2.4746093 0.84375-0.6254791 0.5626829-0.9629258 1.2469722-1.0117188 2.0527344l1.7167969 0.2167968c0.119772-0.5626826 0.3388111-0.9812704 0.6582031-1.2558593 0.319392-0.274589 0.7167542-0.4121094 1.1914062-0.4121094 0.4923951 0 0.8835351 0.1328516 1.171875 0.3984375 0.2927758 0.2610847 0.4394528 0.5761924 0.4394528 0.9453125 0 0.2655866-0.083919 0.5079444-0.2480465 0.7285156-0.106464 0.1395458-0.4309355 0.4346192-0.9765625 0.8847657-0.545627 0.4501462-0.9099229 0.8547267-1.0917969 1.2148437-0.181877 0.360117-0.2734375 0.8207244-0.2734375 1.3789063 0 0.0540169 0.0034125 0.2035908 0.0078125 0.4511718h1.6953125c-0.0089-0.5221698 0.0337901-0.8833716 0.1269532-1.0859375 0.09759-0.2025658 0.3434782-0.4715789 0.7382812-0.8046875 0.762991-0.643709 1.259563-1.1517693 1.490234-1.5253906 0.235118-0.3736213 0.353516-0.7708165 0.353516-1.1894531 0-0.7562456-0.316825-1.417191-0.951172-1.984375-0.634347-0.5716859-1.4889889-0.8574219-2.5624999-0.8574219zm-0.890625 8.103516v1.896484h1.8691407v-1.896484h-1.8691407z" />
</svg>
