<svg id="svg1" width="16" height="16" fill="currentColor" version="1.1" viewBox="0 0 16 16" xmlns="http://www.w3.org/2000/svg">
<path id="path3" d="m8 0c-3.8660365 0-7 3.1339635-7 7 0 3.866037 3.1339635 7 7 7 3.866037 0 7-3.133963 7-7 0-3.8660365-3.133963-7-7-7zm0 1a6 6 0 0 1 6 6 6 6 0 0 1-6 6 6 6 0 0 1-6-6 6 6 0 0 1 6-6zm0 1c-0.5 0-1 0.25-1 0.75v3.25h-3.25c-0.5 0-0.75 0.5-0.75 1s0.25 1 0.75 1h3.25v3.25c0 0.501305 0.5026047 0.751308 1.0039062 0.75 0.4986917-0.001302 0.9960938-0.251305 0.9960938-0.75v-3.25h3.25c0.5 0 0.75-0.5 0.75-1s-0.25-1-0.75-1h-3.25v-3.25c0-0.5-0.5-0.75-1-0.75z"/>
</svg>
