<svg id="svg1" class="bi bi-book-fill" width="16" height="16" fill="currentColor" version="1.1" viewBox="0 0 16 16" xmlns="http://www.w3.org/2000/svg">
<path id="rect16" d="m5.2773438 0c-0.3320679-0.00683594-0.6652344 0.01046875-0.9902344 0.04296874-1.514 0.15299998-3.0421407 0.67246878-3.9941406 1.1054688-0.1784118 0.0811577-0.29295067 0.2590747-0.29296875 0.4550781v10.896484c3.3623137e-5 0.363686 0.37598661 0.605667 0.70703125 0.455078 0.882-0.4 2.3026872-0.816078 3.6796876-0.955078 0.5845204-0.05891 1.1300839-0.08235 1.6132812-7e-6v0.537113c0 0.277 0.223 0.5 0.5 0.5h3c0.277 0 0.4999999-0.223 0.4999999-0.5v-0.537106c0.483006-0.08232 1.027303-0.05889 1.611328 7e-6 1.378 0.139 2.800641 0.555078 3.681641 0.955078 0.331045 0.150573 0.706997-0.091403 0.707031-0.455085v-10.896484c-1.8e-5 -0.1960035-0.114557-0.3739205-0.292969-0.4550781-0.952-0.43299996-2.48014-0.95246876-3.99414-1.1054688-0.325-0.03275-0.658157-0.04968754-0.990235-0.04296874-0.9962334 0.02015616-1.9839059 0.25146872-2.7226559 0.88671872-0.73875-0.63525-1.7264526-0.86621091-2.7226563-0.88671872zm-0.578125 1.1484375c1.1417271-0.0843111 2.2603451 0.144545 3.3007812 0.9550781 2.146508-1.5135275 4.407212-1.0150134 6.744141-0.0351562 0.156111 0.0681186 0.255843 0.218299 0.255859 0.3828124v8.5488282c-2.9e-5 0.30526-0.329477 0.509203-0.619141 0.382812-4.3813472-1.381969-5.380859-0.382812-5.380859-0.382812v0.595206c0 0.232498-0.1951251 0.441903-0.4375 0.441903h-1.125c-0.2423746 0-0.4375-0.209405-0.4375-0.441903v-0.595206s-0.9995113-0.999153-5.3808594 0.382812c-0.2896635 0.126398-0.6191111-0.077555-0.6191406-0.382812v-8.5488282c1.58e-5 -0.1645134 0.0997492-0.3146937 0.2558594-0.3828124 1.1363072-0.4384598 2.3016322-0.8356109 3.4433594-0.9199219zm-3.6992188 2.3515625c0 0.277 0.223 0.5 0.5 0.5h5c0.277 0 0.5-0.223 0.5-0.5s-0.223-0.5-0.5-0.5h-5c-0.277 0-0.5 0.223-0.5 0.5zm0 2c0 0.277 0.223 0.5 0.5 0.5h5c0.277 0 0.5-0.223 0.5-0.5s-0.223-0.5-0.5-0.5h-5c-0.277 0-0.5 0.223-0.5 0.5zm0 4c0 0.277 0.223 0.5 0.5 0.5h5c0.277 0 0.5-0.223 0.5-0.5s-0.223-0.5-0.5-0.5h-5c-0.277 0-0.5 0.223-0.5 0.5zm14 0c0-0.277-0.223-0.5-0.5-0.5h-5c-0.277 0-0.5 0.223-0.5 0.5s0.223 0.5 0.5 0.5h5c0.277 0 0.5-0.223 0.5-0.5zm0-2c0-0.277-0.223-0.5-0.5-0.5h-5c-0.277 0-0.5 0.223-0.5 0.5s0.223 0.5 0.5 0.5h5c0.277 0 0.5-0.223 0.5-0.5zm0-2c0-0.277-0.223-0.5-0.5-0.5h-3c-0.277 0-0.5 0.223-0.5 0.5s0.223 0.5 0.5 0.5h3c0.277 0 0.5-0.223 0.5-0.5zm0-2c0-0.277-0.223-0.5-0.5-0.5h-5c-0.277 0-0.5 0.223-0.5 0.5s0.223 0.5 0.5 0.5h5c0.277 0 0.5-0.223 0.5-0.5zm-11.5 3.5c-0.277 0-0.5 0.223-0.5 0.5s0.223 0.5 0.5 0.5h3c0.277 0 0.5-0.223 0.5-0.5s-0.223-0.5-0.5-0.5z"/>
</svg>
