<svg width="13" height="13" fill="currentColor" version="1.1" viewBox="0 0 13 13" xmlns="http://www.w3.org/2000/svg">
 <path d="m6.5 1c-3.0376 0-5.5 2.4624-5.5 5.5s2.4624 5.5 5.5 5.5 5.5-2.4624 5.5-5.5-2.4624-5.5-5.5-5.5zm0 1.2222c1.6875 0 3.0556 1.0944 3.0556 2.4444-0.00327 1.1595-1.0243 2.1576-2.4444 2.3895v0.66602c0 0.33855-0.27256 0.61111-0.61111 0.61111s-0.61111-0.27256-0.61111-0.61111v-1.2151a0.61111 0.61111 0 0 1 0-0.00716 0.61111 0.61111 0 0 1 0.61111-0.61111c0.010395 0 0.02069 1.654e-4 0.031033 0 0.00557-8.88e-5 0.011155 1.367e-4 0.01671 0 0.82165-0.020197 1.48-0.56 1.48-1.2222 0-0.67501-0.68401-1.2222-1.5278-1.2222s-1.5278 0.54721-1.5278 1.2222c6.832e-4 0.33076-0.34152 0.59918-0.76389 0.59918-0.42237 6e-7 -0.76457-0.26842-0.76389-0.59918 1.689e-4 -0.026354 0.00256-0.052669 0.00716-0.078775 0.053077-1.3169 1.4014-2.3633 3.0484-2.3657zm0 7.3333a0.61111 0.61111 0 0 1 0.61111 0.61111 0.61111 0.61111 0 0 1-0.61111 0.61111 0.61111 0.61111 0 0 1-0.61111-0.61111 0.61111 0.61111 0 0 1 0.61111-0.61111z" stroke-width="1.2222"/>
</svg>
