<svg id="svg1" width="16" height="16" fill="currentColor" version="1.1" viewBox="0 0 16 16" xmlns="http://www.w3.org/2000/svg">
<path id="path1" d="m8 0c-3.8660364 0-7 3.1339636-7 7 0 3.866036 3.1339636 7 7 7 3.866036 0 7-3.133964 7-7 0-3.8660364-3.133964-7-7-7zm0.4863281 2c1.0735109 0 1.9281529 0.285736 2.5624999 0.8574219 0.634347 0.567184 0.951172 1.2281294 0.951172 1.984375 0 0.4186366-0.118408 0.8158318-0.353516 1.1894531-0.230671 0.3736213-0.727243 0.8816816-1.490234 1.5253906-0.3948031 0.3331086-0.6406892 0.6021217-0.7382812 0.8046875-0.0931563 0.2025659-0.1358253 0.5637681-0.1269532 1.0859379h-1.6953125c-0.00443-0.247581-0.00781-0.397155-0.00781-0.4511722 0-0.5581817 0.091562-1.0187893 0.2734375-1.3789063 0.1818737-0.360117 0.5461672-0.7646975 1.0917944-1.2148437 0.5456272-0.4501463 0.8700984-0.7452199 0.9765625-0.8847657 0.1641315-0.2205712 0.2480465-0.462929 0.2480465-0.7285156 0-0.3691201-0.146677-0.6842278-0.4394528-0.9453125-0.2883396-0.2655859-0.6794798-0.3984375-1.171875-0.3984375-0.4746515 0-0.8720144 0.1375204-1.1914062 0.4121094-0.3193918 0.2745889-0.5384311 0.6931765-0.6582031 1.2558593l-1.7167969-0.2167968c0.0487929-0.8057622 0.3862404-1.4900515 1.0117188-2.0527344 0.6299113-0.5626829 1.4543305-0.84375 2.4746093-0.84375zm-0.890625 8.103516h1.8691407v1.896484h-1.8691407z"/>
</svg>
