<svg id="svg2" class="bi bi-trash" width="16" height="16" fill="currentColor" version="1.1" viewBox="0 0 16 16" xmlns="http://www.w3.org/2000/svg">
<path id="path1" d="m5.5 2.9960938c0.2761424 0 0.5 0.2238576 0.5 0.5v7.0020082c0 0.666667-1 0.666667-1 0v-7.0020082c0-0.2761424 0.2238576-0.5 0.5-0.5m2.5 0c0.2761424 0 0.5 0.2238576 0.5 0.5v7.0020082c0 0.666667-1 0.666667-1 0v-7.0020082c0-0.2761424 0.2238576-0.5 0.5-0.5m3 0.5c0-0.6666664-1-0.6666664-1 0v7.0020082c0 0.666667 1 0.666667 1 0z"/>
<path id="path2" d="m7 0c-0.5522847 0-1 0.44771525-1 1h-3-0.5c-0.277 0-0.5 0.223-0.5 0.5s0.223 0.5 0.5 0.5h0.5v9c0 1.104569 0.8954305 2 2 2h6c1.104569 0 2-0.895431 2-2v-9h0.5c0.277 0 0.5-0.223 0.5-0.5s-0.223-0.5-0.5-0.5h-0.5-3c0-0.55228475-0.4477153-1-1-1h-2zm-3 2h8v9c0 0.552285-0.447715 1-1 1h-6c-0.5522847 0-1-0.447715-1-1v-9z"/>
</svg>
